<mxfile host="app.diagrams.net" modified="2024-06-10T07:02:37.851Z" agent="Mozilla/5.0 (X11; Linux x86_64) AppleWebKit/537.36 (KHTML, like Gecko) Chrome/125.0.0.0 Safari/537.36" version="24.5.2" etag="-CIsjt3KPYC3uRkJkak5" type="github">
  <diagram name="Page-1" id="RWWu6FD419iU7PIsXFcd">
    <mxGraphModel>
      <root>
        <mxCell id="0" />
        <mxCell id="1" parent="0" />
      </root>
    </mxGraphModel>
  </diagram>
</mxfile>
